# xmcd
#
# Track frame offsets: 
#        150
#        17172
#        31484
#        43392
#        56098
#        72352
#        83513
#        99936
#        116594
#        131677
#        143482
#
# Disc length: 2136 seconds
#
# Revision: 0
# Processed by: cddbd v1.5.2PL0 Copyright (c) Steve Scherf et al.
# Submitted via: ExactAudioCopy v1.0b3
#
DISCID=9308560b
DTITLE=Various Artist - Rhythm and Blues
DYEAR=2013
DGENRE=R&B
TTITLE0=Lavelle White - I've Never Found a Man to Love
TTITLE1=Elmore James Jr. - See See Rider
TTITLE2=Louis Jordan with Johnny Otis and Shuggie Otis - Let the Good 
TTITLE2=Times Roll
TTITLE3=Snooks Eaglin - A Mother's Love
TTITLE4=The Emotions - My Honey and Me
TTITLE5=James Hunter - 'Til Your Fool Comes Home
TTITLE6=The Quantic Soul Orchestra feat. Kabir - Who Knows
TTITLE7=Roy C - Leaving on the Morning Train
TTITLE8=Cracked Ice - Sweet Feeling
TTITLE9=Rockie Charles - Before I Find the Right Girl for Me
TTITLE10=Sharon Jones and The Dap Kings - 100 Days, 100 Nights
EXTD=
EXTT0=
EXTT1=
EXTT2=
EXTT3=
EXTT4=
EXTT5=
EXTT6=
EXTT7=
EXTT8=
EXTT9=
EXTT10=
PLAYORDER=
